<svg id="Warstwa_1" data-name="Warstwa 1" xmlns="http://www.w3.org/2000/svg" viewBox="0 0 1000 1000"><defs><style>.cls-1{fill:#375c66;}.cls-2{fill:#fff;}</style></defs><rect class="cls-1" width="1000" height="1000"/><path class="cls-2" d="M519.24,291.57a167.61,167.61,0,0,0-5.37-32.93c-1.36-5.1-2.94-10.12-4.79-15.08A164,164,0,0,0,500,223.31a166.92,166.92,0,0,0-29.49-39.88c-1.54-1.59-3.17-3.11-4.75-4.59C448.39,162.79,429.29,156,410.85,156c-63.61,0-118.8,81.08-63.32,141.06,1.48,1.57,3,3.19,4.59,4.72s3.64,3.56,5.52,5.28,4.24,3.75,6.44,5.5c26.65,21.44,60.52,32.49,95,32.49h54.78a165.79,165.79,0,0,0,5.33-32.59h0A128.06,128.06,0,0,1,519.24,291.57Zm-48.73,21a128.11,128.11,0,0,1-91.29-37.87c-1.25-1.19-2.4-2.42-3.6-3.68-13-14.08-16-29.35-9-45.48,7.94-18.09,26.53-31.26,44.22-31.26,10.11,0,19.84,4.28,28.81,12.64,1.28,1.21,2.49,2.34,3.73,3.6a130,130,0,0,1,37.37,81.06,126.82,126.82,0,0,1,0,21Z"/><path class="cls-2" d="M589.15,155.89c-18.52,0-37.54,6.77-54.91,22.82-1.58,1.49-3.21,3-4.75,4.59A167.17,167.17,0,0,0,500,223.19a164.53,164.53,0,0,0-9.08,20.24c-1.85,5-3.43,10-4.79,15.09a167.63,167.63,0,0,0-5.37,32.92,126.94,126.94,0,0,1,0,21h0a166.13,166.13,0,0,0,5.37,32.63h54.78c34.49,0,68.36-11,95-32.59,2.2-1.75,4.34-3.6,6.44-5.5s3.71-3.48,5.52-5.29,3.11-3.15,4.59-4.71C708,237,652.76,155.89,589.15,155.89ZM624.38,271c-1.2,1.25-2.35,2.49-3.6,3.68a128.11,128.11,0,0,1-91.29,37.87H519.2a126.82,126.82,0,0,1,0-21,130,130,0,0,1,37.31-81.06c1.23-1.26,2.45-2.39,3.72-3.6,9.06-8.36,18.77-12.64,28.81-12.64,17.7,0,36.28,13.17,44.23,31.26C640.41,241.56,637.4,256.83,624.38,271Z"/><path class="cls-2" d="M417,511.06V805.89H273.82a7.2,7.2,0,0,1-7.18-7.18V511.06Z"/><path class="cls-2" d="M733.36,511.06V798.71a7.2,7.2,0,0,1-7.18,7.18H583V511.06Z"/><path class="cls-2" d="M417,383.35v89.43H238.3a7.2,7.2,0,0,1-7.18-7.18V390.53a7.2,7.2,0,0,1,7.18-7.18Z"/><path class="cls-2" d="M768.88,390.53V465.6a7.2,7.2,0,0,1-7.18,7.18H583V383.35H761.7A7.2,7.2,0,0,1,768.88,390.53Z"/><rect class="cls-2" x="455.28" y="383.35" width="89.41" height="422.52"/></svg>