<svg id="Warstwa_1" data-name="Warstwa 1" xmlns="http://www.w3.org/2000/svg" viewBox="0 0 1000 1000"><defs><style>.cls-1{fill:#6c1f33;}.cls-2{fill:#fff;}</style></defs><rect class="cls-1" width="1000" height="1000"/><path class="cls-2" d="M313.43,701.05l.29-8.62A371.42,371.42,0,0,1,357.4,530.06q36.21-69.25,93.68-112.94,55.76-42.53,108.63-42.53,40.23,0,63.22,27.88,20.12,24.13,20.12,59.2,0,42-30.75,82.76Q594.48,568,574.65,578.34q-9.76,5.17-18,5.17a33.39,33.39,0,0,1-15.09-3.44,41.78,41.78,0,0,1-11.78-8.63q-10.92-11.21-10.92-20.11T523.5,539q47.13-33.9,64.37-69.83a64.63,64.63,0,0,0,6.32-27q0-27.88-26.44-27.88-42,0-86.78,47.42-41.67,44-70.7,110.35-29.31,68.1-31,125-2.88,60.63,28.73,81.32,10.92,7.18,27,7.19a64,64,0,0,0,30.6-7.76,91.94,91.94,0,0,0,25.15-19.54q22.41-25.87,23-53.74.57-21-15-29a62.54,62.54,0,0,0-13.65-4.88,53.51,53.51,0,0,1-12.07-4.17q-4.74-2.45-2.44-9.19t8.62-13.94q16.67-18.39,36.5-18.39,6.6,0,19.83,2.87,24.7,5.46,33.33,5.46t13.65-.43a79.28,79.28,0,0,0,10.21-1.58,177.48,177.48,0,0,0,22.12-6.32q17-5.76,17,7.61a59.11,59.11,0,0,1-5.46,25.15,60,60,0,0,1-14.94,20.11Q591,696.16,560.86,695.59q3.15,18.67-13.22,48.28-29,53.16-83.34,73.28-19.26,7.19-43.25,7.18a112.46,112.46,0,0,1-44.11-8.47,96.78,96.78,0,0,1-34.49-24.29Q313.43,758.81,313.43,701.05Z"/><path class="cls-2" d="M680,208.58a88.1,88.1,0,0,0-29.95-36.29c-13.7-9.57-29.2-14.62-44.79-14.62-18.78,0-36.76,7.44-52,21.51-1.37,1.29-2.89,2.71-4.35,4.21a151.12,151.12,0,0,0-22,27.85A151.35,151.35,0,0,0,505,183.5c-1.46-1.49-3-2.92-4.33-4.19-15.26-14.1-33.24-21.54-52-21.54-15.6,0-31.09,5.06-44.79,14.64a88,88,0,0,0-30,36.29c-12.45,28.5-7,58.49,15.05,82.3l0,0,0,0,.39.41c1.21,1.3,2.48,2.63,3.83,3.92l1.31,1.29c1.13,1.08,2.41,2.32,3.61,3.43,1.73,1.61,3.91,3.47,6,5.1,23.83,19.17,54.71,29.75,86.92,29.75h71.89c32.26,0,63.15-10.61,86.94-29.87,1.8-1.42,3.73-3.07,5.89-5,2-1.79,3.46-3.25,5-4.84s2.69-2.73,4.13-4.25l0,0,0,0C687,267.09,692.48,237.08,680,208.58ZM504.83,295.3h-4.09a107.72,107.72,0,0,1-76-31.63l-.06-.05-.05-.06c-.86-.81-1.68-1.68-2.55-2.6l-.39-.41c-9.91-10.73-12.16-21.84-6.86-34,6.13-14,20.34-24.14,33.77-24.14,7.43,0,14.67,3.22,21.52,9.59l.59.56c.88.83,1.71,1.62,2.53,2.45a109,109,0,0,1,31.26,67.79c.23,2.88.35,5.81.35,8.71C504.89,292.81,504.87,294.06,504.83,295.3Zm127.36-34.76-.38.4c-.87.92-1.7,1.79-2.55,2.6l-.07,0-.06.06a107.66,107.66,0,0,1-76,31.64h-4.12a107.32,107.32,0,0,1,.32-12.43l0-.41,0-.23a109,109,0,0,1,31.13-67.16c.83-.84,1.66-1.63,2.54-2.46l.59-.55c6.92-6.38,14.16-9.61,21.53-9.61,13.42,0,27.63,10.15,33.78,24.15C644.33,238.63,642.11,249.73,632.19,260.54Z"/></svg>