<svg id="Warstwa_1" data-name="Warstwa 1" xmlns="http://www.w3.org/2000/svg" viewBox="0 0 1000 1000"><defs><style>.cls-1{fill:#375c66;}.cls-2{fill:#fff;}</style></defs><rect class="cls-1" width="1000" height="1000"/><path class="cls-2" d="M315.57,453.73a41.25,41.25,0,0,0-1.31-8q-.5-1.87-1.17-3.69a40.79,40.79,0,0,0-9.43-14.69c-.37-.39-.77-.76-1.16-1.13a19.52,19.52,0,0,0-13.41-5.57c-15.55,0-29,19.81-15.48,34.47.36.38.74.78,1.12,1.15s.89.87,1.35,1.29,1,.92,1.57,1.35a37.06,37.06,0,0,0,23.22,7.94h13.39a39.93,39.93,0,0,0,1.3-8h0A32.29,32.29,0,0,1,315.57,453.73Zm-11.91,5.13a31.28,31.28,0,0,1-22.3-9.25c-.31-.29-.59-.59-.88-.9-3.18-3.44-3.92-7.17-2.2-11.12,1.94-4.42,6.48-7.63,10.81-7.63a10.3,10.3,0,0,1,7,3.08l.91.88a31.81,31.81,0,0,1,9.13,19.81,31.38,31.38,0,0,1,0,5.13Z"/><path class="cls-2" d="M332.66,420.58a19.49,19.49,0,0,0-13.42,5.57c-.39.37-.78.74-1.16,1.13A40.79,40.79,0,0,0,308.65,442q-.67,1.81-1.17,3.69a41.25,41.25,0,0,0-1.31,8,31.38,31.38,0,0,1,0,5.13h0a40.65,40.65,0,0,0,1.31,8h13.39a36.88,36.88,0,0,0,23.22-8c.54-.43,1.06-.88,1.57-1.34s.91-.85,1.35-1.29.76-.77,1.12-1.15C361.69,440.39,348.2,420.58,332.66,420.58Zm8.61,28.12c-.29.31-.58.61-.88.9a31.32,31.32,0,0,1-22.31,9.26h-2.52a31.38,31.38,0,0,1,0-5.13,31.8,31.8,0,0,1,9.12-19.81c.3-.31.6-.58.91-.88a10.37,10.37,0,0,1,7-3.09c4.33,0,8.87,3.22,10.81,7.64C345.18,441.51,344.45,445.24,341.27,448.7Z"/><path class="cls-2" d="M290.59,507.37v72h-35a1.76,1.76,0,0,1-1.76-1.75v-70.3Z"/><path class="cls-2" d="M367.9,507.37v70.3a1.75,1.75,0,0,1-1.75,1.75h-35v-72Z"/><path class="cls-2" d="M290.59,476.16V498H246.92a1.76,1.76,0,0,1-1.76-1.76V477.92a1.77,1.77,0,0,1,1.76-1.76Z"/><path class="cls-2" d="M376.58,477.92v18.34a1.76,1.76,0,0,1-1.75,1.76H331.15V476.16h43.68A1.77,1.77,0,0,1,376.58,477.92Z"/><rect class="cls-2" x="299.94" y="476.16" width="21.85" height="103.26"/><path class="cls-2" d="M405.14,518.84l.06-1.6a68.84,68.84,0,0,1,8.09-30.09,61.68,61.68,0,0,1,17.36-20.92q10.34-7.89,20.13-7.88,7.46,0,11.71,5.16a16.54,16.54,0,0,1,3.73,11q0,7.77-5.7,15.34a21.44,21.44,0,0,1-7,6.28,7.22,7.22,0,0,1-3.33,1,6.13,6.13,0,0,1-2.8-.64,7.74,7.74,0,0,1-2.18-1.6c-1.35-1.38-2-2.62-2-3.73a2.69,2.69,0,0,1,.85-2.29q8.73-6.27,11.93-12.93a12,12,0,0,0,1.17-5c0-3.44-1.64-5.17-4.9-5.17q-7.77,0-16.08,8.79a70.2,70.2,0,0,0-13.1,20.45q-5.43,12.61-5.75,23.16-.54,11.24,5.32,15.07a8.91,8.91,0,0,0,5,1.33,12,12,0,0,0,5.67-1.43,17.15,17.15,0,0,0,4.66-3.63,15.57,15.57,0,0,0,4.26-9.95c.07-2.59-.85-4.39-2.77-5.38a12,12,0,0,0-2.53-.91,9.85,9.85,0,0,1-2.24-.77c-.58-.3-.73-.87-.45-1.7a7.77,7.77,0,0,1,1.6-2.59q3.09-3.4,6.76-3.4a18.54,18.54,0,0,1,3.67.53,36.27,36.27,0,0,0,6.18,1c1.07,0,1.91,0,2.53-.08a14.2,14.2,0,0,0,1.89-.29,33,33,0,0,0,4.1-1.17c2.1-.71,3.14-.24,3.14,1.41a10.88,10.88,0,0,1-1,4.66,11,11,0,0,1-2.77,3.72,13.05,13.05,0,0,1-9.37,3.31c.39,2.3-.43,5.29-2.45,8.94a28.39,28.39,0,0,1-15.44,13.58,22.75,22.75,0,0,1-8,1.33,20.8,20.8,0,0,1-8.17-1.57,18.09,18.09,0,0,1-6.39-4.5Q405.14,529.53,405.14,518.84Z"/><path class="cls-2" d="M486.56,531.19c.92,0,1.39.61,1.39,1.81a7.72,7.72,0,0,1-2.19,5,10.69,10.69,0,0,1-8.57,3.73q-6.18,0-8.47-5a9.66,9.66,0,0,1-.85-4.26,20.21,20.21,0,0,1,.88-5.57c.59-2,1.31-4.19,2.18-6.44s1.82-4.54,2.85-6.84l2.82-6.71q3.09-7.51,3.09-9.91a6.66,6.66,0,0,0-.5-3.17,4.4,4.4,0,0,0-1.1-1.19l-1.06-.75a1.46,1.46,0,0,1-.53-1.3,2.73,2.73,0,0,1,.72-1.79,6.57,6.57,0,0,1,1.89-1.49A12.06,12.06,0,0,1,484.7,486c5.22,0,7.83,1.36,7.83,4.1A29.55,29.55,0,0,1,490,501.08q-2.5,6.15-4.26,9.93l-3.19,7.35Q479,526.44,479.05,530a2.07,2.07,0,0,0,2.35,2.34,8,8,0,0,0,3.46-.58A4.56,4.56,0,0,1,486.56,531.19Zm10.92-57.64a9.81,9.81,0,0,1-2.66,2,8.86,8.86,0,0,1-3.15,1,5.51,5.51,0,0,1-3.11-.51,7.21,7.21,0,0,1-2.53-2,8.21,8.21,0,0,1-2.29-5.37,7.59,7.59,0,0,1,.88-4.08,7.28,7.28,0,0,1,2.21-2.21,9,9,0,0,1,4.82-1.65,15,15,0,0,1,3.51.32,6.91,6.91,0,0,1,2.32,1.07,5.09,5.09,0,0,1,2.61,4.28,10.71,10.71,0,0,1-.72,4.21A10.11,10.11,0,0,1,497.48,473.55Z"/><path class="cls-2" d="M540.08,496.1q-3.09,0-11.29,8.95-6.12,7-8.89,10.49l-4.8,6.07q-3.09,5.85-4.84,9.74l-2.88,6.18a14.94,14.94,0,0,1-1.94,3.22,2.85,2.85,0,0,1-2.24.93,7.57,7.57,0,0,1-2.71-.5,8.24,8.24,0,0,1-2.27-1.31,4.86,4.86,0,0,1-2-3.73,9.39,9.39,0,0,1,1.17-3.14l2-4.31q1-1.92,2.24-4.9l3-7.3q6.28-15.71,6.29-20.28a4.19,4.19,0,0,0-1.6-3.62l-1.07-.75a1.49,1.49,0,0,1-.53-1.3,2.73,2.73,0,0,1,.72-1.79,6.57,6.57,0,0,1,1.89-1.49,10.44,10.44,0,0,1,4.82-1.22,10.84,10.84,0,0,1,3.81.53,7.44,7.44,0,0,1,2.39,1.44,5.32,5.32,0,0,1,2,3.88,16,16,0,0,1-.54,4.08,37.54,37.54,0,0,1-1.33,4.15c-.53,1.4-1.1,2.76-1.7,4.07q-2.13,4.59-2.64,5.62c-.33.69-.43.95-.29.77q9.75-12.61,11.72-14.91a49.44,49.44,0,0,1,6.39-6.49c2.8-2.1,5.45-3.14,8-3.14a7.9,7.9,0,0,1,6,2.34,8.57,8.57,0,0,1,2.23,6.18,22.83,22.83,0,0,1-1.7,7.88c-1.14,3-1.9,5.13-2.29,6.33L555,498.44l4.36-5.22q3.95-4.41,6.93-5.8a12.29,12.29,0,0,1,4.87-1.38,10.56,10.56,0,0,1,3.73.69,8.66,8.66,0,0,1,3.11,2,9.17,9.17,0,0,1,2.72,6.92,21.08,21.08,0,0,1-1.92,8.52q-1.92,4.37-3.35,7.16c-1,1.87-1.89,3.74-2.77,5.62-2.59,5.65-3.89,9.83-3.89,12.57,0,1.91.78,2.87,2.34,2.87a8.7,8.7,0,0,0,4.08-1,7.51,7.51,0,0,1,2.37-.95,1,1,0,0,1,1.11,1.11q0,4.74-4.84,7.94a11,11,0,0,1-5.94,2.18,12.16,12.16,0,0,1-4.34-.64,8.22,8.22,0,0,1-3-2,10.66,10.66,0,0,1-3-7.72,29.45,29.45,0,0,1,1.17-8.52,66.46,66.46,0,0,1,2.77-7.54c1.06-2.43,2.14-4.66,3.22-6.71s1.91-3.66,2.48-4.87a15.34,15.34,0,0,0,1.7-5.48c0-1.39-.73-2.08-2.18-2.08q-2.88,0-10.33,9.53-5.65,7.41-7.83,10.65l-3.68,5.33q-3.09,5.85-4.74,9.74l-2.71,6.18a15.65,15.65,0,0,1-1.76,3.22,2.52,2.52,0,0,1-2.08.93,8.11,8.11,0,0,1-2.58-.42,7.66,7.66,0,0,1-2.15-1.12,4.22,4.22,0,0,1-2.08-3.28,14.48,14.48,0,0,1,1.14-4.74c.77-2,1.72-4.25,2.85-6.73l7.46-15.76q4-8.79,4-11.16C542.26,496.89,541.53,496.1,540.08,496.1Zm5.27,15s0,0,0-.06l.06-.1C545.38,511,545.35,511.08,545.35,511.12Z"/><path class="cls-2" d="M629,496.1q-3.09,0-11.29,8.95-6.12,7-8.89,10.49L604,521.61q-3.09,5.85-4.85,9.74l-2.87,6.18a15.3,15.3,0,0,1-2,3.22,2.83,2.83,0,0,1-2.23.93,7.62,7.62,0,0,1-2.72-.5,8.18,8.18,0,0,1-2.26-1.31,4.87,4.87,0,0,1-2-3.73,9.26,9.26,0,0,1,1.18-3.14l2-4.31c.64-1.28,1.38-2.91,2.24-4.9l3-7.3q6.28-15.71,6.28-20.28a4.17,4.17,0,0,0-1.6-3.62l-1.06-.75a1.46,1.46,0,0,1-.53-1.3,2.73,2.73,0,0,1,.72-1.79,6.31,6.31,0,0,1,1.89-1.49A10.41,10.41,0,0,1,604,486a10.8,10.8,0,0,1,3.81.53,7.6,7.6,0,0,1,2.4,1.44,5.31,5.31,0,0,1,2,3.88,16.44,16.44,0,0,1-.53,4.08,42.31,42.31,0,0,1-1.33,4.15c-.53,1.4-1.1,2.76-1.71,4.07-1.42,3.06-2.29,4.93-2.63,5.62s-.44.95-.29.77q9.74-12.61,11.71-14.91a49.44,49.44,0,0,1,6.39-6.49c2.8-2.1,5.46-3.14,8-3.14a7.9,7.9,0,0,1,6,2.34,8.58,8.58,0,0,1,2.24,6.18,22.87,22.87,0,0,1-1.71,7.88c-1.13,3-1.9,5.13-2.29,6.33l7.83-10.33,4.37-5.22q3.94-4.41,6.92-5.8A12.33,12.33,0,0,1,660,486a10.52,10.52,0,0,1,3.73.69,8.7,8.7,0,0,1,3.12,2,9.16,9.16,0,0,1,2.71,6.92,21.23,21.23,0,0,1-1.91,8.52q-1.92,4.37-3.36,7.16t-2.77,5.62c-2.59,5.65-3.89,9.83-3.89,12.57,0,1.91.78,2.87,2.35,2.87a8.64,8.64,0,0,0,4.07-1,7.7,7.7,0,0,1,2.37-.95,1,1,0,0,1,1.12,1.11q0,4.74-4.85,7.94a10.92,10.92,0,0,1-5.93,2.18,12.12,12.12,0,0,1-4.34-.64,8.17,8.17,0,0,1-3-2,10.7,10.7,0,0,1-3-7.72,29.45,29.45,0,0,1,1.17-8.52,68.44,68.44,0,0,1,2.77-7.54c1.07-2.43,2.14-4.66,3.22-6.71s1.91-3.66,2.48-4.87a15.13,15.13,0,0,0,1.7-5.48c0-1.39-.72-2.08-2.18-2.08q-2.88,0-10.33,9.53-5.64,7.41-7.83,10.65l-3.67,5.33q-3.09,5.85-4.74,9.74l-2.72,6.18a15.72,15.72,0,0,1-1.75,3.22,2.52,2.52,0,0,1-2.08.93,8,8,0,0,1-2.58-.42,7.59,7.59,0,0,1-2.16-1.12c-1.38-1-2.08-2.12-2.08-3.28a14.29,14.29,0,0,1,1.15-4.74c.76-2,1.71-4.25,2.85-6.73l7.45-15.76q4-8.79,4-11.16T629,496.1Zm5.27,15a.05.05,0,0,0,.06-.06l.05-.1C634.26,511,634.22,511.08,634.22,511.12Z"/><path class="cls-2" d="M695.51,531.19c.93,0,1.39.61,1.39,1.81a7.76,7.76,0,0,1-2.18,5,10.71,10.71,0,0,1-8.58,3.73q-6.18,0-8.46-5a9.66,9.66,0,0,1-.86-4.26,20.6,20.6,0,0,1,.88-5.57q.88-3.06,2.19-6.44c.87-2.26,1.81-4.54,2.84-6.84l2.83-6.71q3.09-7.51,3.09-9.91a6.5,6.5,0,0,0-.51-3.17,4.53,4.53,0,0,0-1.09-1.19l-1.07-.75a1.49,1.49,0,0,1-.53-1.3,2.73,2.73,0,0,1,.72-1.79,6.57,6.57,0,0,1,1.89-1.49,12.08,12.08,0,0,1,5.59-1.22c5.22,0,7.83,1.36,7.83,4.1a29.71,29.71,0,0,1-2.5,10.94q-2.51,6.15-4.26,9.93l-3.2,7.35Q688,526.44,688,530a2.07,2.07,0,0,0,2.34,2.34,8,8,0,0,0,3.46-.58A4.56,4.56,0,0,1,695.51,531.19Zm10.92-57.64a9.81,9.81,0,0,1-2.66,2,8.8,8.8,0,0,1-3.14,1,5.56,5.56,0,0,1-3.12-.51,7.3,7.3,0,0,1-2.53-2,8.26,8.26,0,0,1-2.29-5.37,7.68,7.68,0,0,1,.88-4.08,7.39,7.39,0,0,1,2.21-2.21,9,9,0,0,1,4.82-1.65,15,15,0,0,1,3.51.32,6.91,6.91,0,0,1,2.32,1.07,5.09,5.09,0,0,1,2.61,4.28,10.71,10.71,0,0,1-.72,4.21A10.11,10.11,0,0,1,706.43,473.55Z"/><path class="cls-2" d="M709.41,522.51a34.48,34.48,0,0,1,1.55-8.86,41.5,41.5,0,0,1,3.57-8.2,47.3,47.3,0,0,1,5.24-7.51,41.85,41.85,0,0,1,6.52-6.21q7.62-5.69,15.39-5.69,9.11,0,12.14,7.5a15.17,15.17,0,0,1,1,6A16.66,16.66,0,0,1,753.5,506a18.73,18.73,0,0,1-3.54,5.38,25.69,25.69,0,0,1-5.38,4.34A36.92,36.92,0,0,1,737.8,519a50.46,50.46,0,0,1-16.19,2.77,10.31,10.31,0,0,0-.27,2.23,14.48,14.48,0,0,0,.32,3.33,9.61,9.61,0,0,0,1.28,3.28,6.09,6.09,0,0,0,5.54,3.19,22.64,22.64,0,0,0,12-3.62,16.88,16.88,0,0,0,3.38-2.53,3.57,3.57,0,0,1,2.27-1.3,2,2,0,0,1,1.67,1.14,4.75,4.75,0,0,1,.72,2.58A7.75,7.75,0,0,1,747,535q-6.71,6.72-20,6.71-7.83,0-12.57-4.68Q709.1,531.68,709.41,522.51Zm31.1-29.39q-5.6,0-10.76,7.67a57.65,57.65,0,0,0-7,15.65,25.84,25.84,0,0,0,15.44-7q6-5.75,6-11T740.51,493.12Z"/><path class="cls-2" d="M430.74,570a.69.69,0,0,1,.19.51v6.94a.94.94,0,0,1-.6.94,11.46,11.46,0,0,1-2.6.79,17,17,0,0,1-3.11.28,9.24,9.24,0,0,1-4.64-1.11,7.22,7.22,0,0,1-3-3.24,11.6,11.6,0,0,1-1-5.1,11.47,11.47,0,0,1,1-5,7.5,7.5,0,0,1,2.93-3.26,8.71,8.71,0,0,1,4.53-1.14,9.89,9.89,0,0,1,3.43.59,6.68,6.68,0,0,1,2.62,1.69,1.08,1.08,0,0,1,.34.76.79.79,0,0,1-.16.5.46.46,0,0,1-.39.21,1.14,1.14,0,0,1-.58-.27,9.29,9.29,0,0,0-2.56-1.59,7.57,7.57,0,0,0-2.7-.45,6.24,6.24,0,0,0-5,2.08,10.81,10.81,0,0,0,0,11.87,6.47,6.47,0,0,0,5.18,2.07,14.65,14.65,0,0,0,2.58-.22,10.67,10.67,0,0,0,2.27-.64v-6h-4.24a.79.79,0,0,1-.57-.19.63.63,0,0,1-.19-.49.65.65,0,0,1,.19-.5.83.83,0,0,1,.57-.18h5A.69.69,0,0,1,430.74,570Z"/><path class="cls-2" d="M440.94,579.11a.89.89,0,0,1-.22-.6v-17a.85.85,0,0,1,.22-.6.78.78,0,0,1,.59-.24.76.76,0,0,1,.59.24.81.81,0,0,1,.22.6v17a.84.84,0,0,1-.22.6.76.76,0,0,1-.59.24A.78.78,0,0,1,440.94,579.11Z"/><path class="cls-2" d="M452.56,579.11a.89.89,0,0,1-.22-.6V561.57a.74.74,0,0,1,.25-.57.86.86,0,0,1,.62-.24h9.68a.73.73,0,0,1,.54.19.67.67,0,0,1,.19.52.63.63,0,0,1-.19.51.81.81,0,0,1-.54.17H454v7h8.41a.76.76,0,0,1,.53.18.69.69,0,0,1,.2.52.69.69,0,0,1-.2.53.76.76,0,0,1-.53.18H454v8a.9.9,0,0,1-.2.61.79.79,0,0,1-.61.23A.78.78,0,0,1,452.56,579.11Z"/><path class="cls-2" d="M476.74,579.11a.88.88,0,0,1-.21-.6V562.18h-6a.77.77,0,0,1-.54-.19.81.81,0,0,1,0-1,.73.73,0,0,1,.54-.19h13.66a.76.76,0,0,1,.53.2.72.72,0,0,1,0,1,.76.76,0,0,1-.53.2h-6v16.33a.84.84,0,0,1-.22.6.76.76,0,0,1-.59.24A.7.7,0,0,1,476.74,579.11Z"/><path class="cls-2" d="M492.87,579.11a.84.84,0,0,1-.22-.6v-17a.81.81,0,0,1,.22-.6.85.85,0,0,1,1.18,0,.81.81,0,0,1,.22.6v17a.84.84,0,0,1-.22.6.85.85,0,0,1-1.18,0Z"/><path class="cls-2" d="M518.55,560.85a.92.92,0,0,1,.19.62v17a.88.88,0,0,1-.21.6.72.72,0,0,1-.57.24.92.92,0,0,1-.71-.4l-11.46-15.47v15a.88.88,0,0,1-.21.6.69.69,0,0,1-.55.24.72.72,0,0,1-.58-.23.94.94,0,0,1-.18-.61v-17a.79.79,0,0,1,.84-.84.79.79,0,0,1,.68.39l11.44,15.45v-15a.84.84,0,0,1,.21-.6.67.67,0,0,1,.54-.24A.74.74,0,0,1,518.55,560.85Z"/><path class="cls-2" d="M542.81,570a.69.69,0,0,1,.2.51v6.94a.94.94,0,0,1-.61.94,11.46,11.46,0,0,1-2.6.79,16.86,16.86,0,0,1-3.1.28,9.25,9.25,0,0,1-4.65-1.11,7.27,7.27,0,0,1-3-3.24,11.6,11.6,0,0,1-1-5.1,11.47,11.47,0,0,1,1-5,7.44,7.44,0,0,1,2.93-3.26,8.66,8.66,0,0,1,4.53-1.14,9.83,9.83,0,0,1,3.42.59,6.6,6.6,0,0,1,2.62,1.69,1,1,0,0,1,.34.76.79.79,0,0,1-.16.5.46.46,0,0,1-.39.21,1.09,1.09,0,0,1-.57-.27,9.32,9.32,0,0,0-2.57-1.59,7.47,7.47,0,0,0-2.69-.45,6.25,6.25,0,0,0-5,2.08,10.84,10.84,0,0,0,0,11.87A6.44,6.44,0,0,0,536.7,578a14.81,14.81,0,0,0,2.58-.22,10.57,10.57,0,0,0,2.26-.64v-6H537.3a.76.76,0,0,1-.56-.19.63.63,0,0,1-.2-.49.65.65,0,0,1,.2-.5.8.8,0,0,1,.56-.18h5A.69.69,0,0,1,542.81,570Z"/><path class="cls-2" d="M581.63,560.87a.85.85,0,0,1,.22.6v17a.88.88,0,0,1-.21.6.73.73,0,0,1-.58.24.67.67,0,0,1-.55-.23.94.94,0,0,1-.18-.61V564l-6.2,12a.92.92,0,0,1-1.73,0l-6.26-11.88v14.42a.94.94,0,0,1-.18.61.66.66,0,0,1-.55.23.75.75,0,0,1-.59-.23.89.89,0,0,1-.19-.61v-17a.81.81,0,0,1,.22-.6.79.79,0,0,1,.61-.24.91.91,0,0,1,.79.6l7,13.51,6.93-13.51a.93.93,0,0,1,.79-.6A.81.81,0,0,1,581.63,560.87Z"/><path class="cls-2" d="M607.47,578.66a.62.62,0,0,1-.23.49.85.85,0,0,1-.55.2.72.72,0,0,1-.41-.14.77.77,0,0,1-.3-.36l-2-4.56H593.83l-2,4.56a.78.78,0,0,1-.73.5.8.8,0,0,1-.54-.2.64.64,0,0,1-.22-.51.6.6,0,0,1,0-.29L598,561.18a.87.87,0,0,1,.87-.57,1,1,0,0,1,.53.15.91.91,0,0,1,.36.42l7.61,17.17A.62.62,0,0,1,607.47,578.66Zm-13-5.78h8.92l-4.45-10.13Z"/><path class="cls-2" d="M616.17,579a.78.78,0,0,1-.24-.58V561.57a.76.76,0,0,1,.24-.57.86.86,0,0,1,.62-.24h5.08a9.19,9.19,0,0,1,6.76,2.38q2.4,2.39,2.4,6.83t-2.4,6.85a9.12,9.12,0,0,1-6.76,2.39h-5.08A.85.85,0,0,1,616.17,579Zm13.16-9q0-7.79-7.54-7.79h-4.24V577.8h4.24Q629.32,577.8,629.33,570Z"/><path class="cls-2" d="M640.54,579a.76.76,0,0,1-.25-.58V561.57a.74.74,0,0,1,.25-.57.86.86,0,0,1,.62-.24h9.94a.73.73,0,0,1,.54.19.78.78,0,0,1,0,1,.77.77,0,0,1-.54.18h-9.21v7h8.69a.74.74,0,0,1,.53.18.65.65,0,0,1,.2.52.66.66,0,0,1-.2.53.74.74,0,0,1-.53.18h-8.69v7.28h9.21a.76.76,0,0,1,.54.17.63.63,0,0,1,.19.51.68.68,0,0,1-.19.52.77.77,0,0,1-.54.18h-9.94A.85.85,0,0,1,640.54,579Z"/><path class="cls-2" d="M672.76,579a.76.76,0,0,1-.25-.58V561.57a.74.74,0,0,1,.25-.57.86.86,0,0,1,.62-.24h9.94a.73.73,0,0,1,.54.19.78.78,0,0,1,0,1,.77.77,0,0,1-.54.18h-9.21v7h8.69a.76.76,0,0,1,.53.18.69.69,0,0,1,.2.52.69.69,0,0,1-.2.53.76.76,0,0,1-.53.18h-8.69v7.28h9.21a.76.76,0,0,1,.54.17.63.63,0,0,1,.19.51.68.68,0,0,1-.19.52.77.77,0,0,1-.54.18h-9.94A.85.85,0,0,1,672.76,579Z"/><path class="cls-2" d="M708.13,578.66a.62.62,0,0,1-.23.49.85.85,0,0,1-.55.2.72.72,0,0,1-.41-.14.77.77,0,0,1-.3-.36l-2-4.56H694.5l-2,4.56a.78.78,0,0,1-.73.5.8.8,0,0,1-.54-.2.64.64,0,0,1-.22-.51.76.76,0,0,1,0-.29l7.64-17.17a.87.87,0,0,1,.87-.57,1,1,0,0,1,.53.15.91.91,0,0,1,.36.42l7.61,17.17A.62.62,0,0,1,708.13,578.66Zm-13-5.78H704l-4.45-10.13Z"/><path class="cls-2" d="M718.41,578.81a7.13,7.13,0,0,1-2.82-1.66,1,1,0,0,1-.34-.76.8.8,0,0,1,.17-.5.5.5,0,0,1,.38-.21,1,1,0,0,1,.6.26,8.71,8.71,0,0,0,5.74,2,6.07,6.07,0,0,0,3.67-1,3.16,3.16,0,0,0,1.3-2.71,2.23,2.23,0,0,0-.63-1.65,4.21,4.21,0,0,0-1.6-1,20.18,20.18,0,0,0-2.59-.72,25.39,25.39,0,0,1-3.46-1,5.61,5.61,0,0,1-2.24-1.5,3.9,3.9,0,0,1-.92-2.71,4.72,4.72,0,0,1,.83-2.74,5.33,5.33,0,0,1,2.31-1.84,8.43,8.43,0,0,1,3.43-.66,9.8,9.8,0,0,1,3.4.59,6.87,6.87,0,0,1,2.65,1.69,1.08,1.08,0,0,1,.34.76.8.8,0,0,1-.17.5.5.5,0,0,1-.38.21,1,1,0,0,1-.6-.27,10.08,10.08,0,0,0-2.56-1.59,7.27,7.27,0,0,0-2.68-.45,5.85,5.85,0,0,0-3.64,1,3.28,3.28,0,0,0-1.31,2.77,2.57,2.57,0,0,0,.58,1.74,4,4,0,0,0,1.5,1.06,16.39,16.39,0,0,0,2.4.76l.68.16a34.41,34.41,0,0,1,3.35,1,5.08,5.08,0,0,1,2.08,1.37,3.54,3.54,0,0,1,.85,2.5,4.51,4.51,0,0,1-.82,2.66,5.4,5.4,0,0,1-2.33,1.8,8.68,8.68,0,0,1-3.44.64A11.35,11.35,0,0,1,718.41,578.81Z"/><path class="cls-2" d="M749.33,560.66a.69.69,0,0,1,.5.21.7.7,0,0,1,.21.52.71.71,0,0,1-.19.5l-6.54,8.43v8.19a.88.88,0,0,1-.21.6.72.72,0,0,1-.57.24.75.75,0,0,1-.59-.24.85.85,0,0,1-.23-.6v-8.25l-6.51-8.37a.71.71,0,0,1-.19-.5.73.73,0,0,1,.21-.51.66.66,0,0,1,.5-.22.7.7,0,0,1,.58.31l6.23,8.06,6.22-8.06A.7.7,0,0,1,749.33,560.66Z"/></svg>