<svg id="Warstwa_1" data-name="Warstwa 1" xmlns="http://www.w3.org/2000/svg" viewBox="0 0 1000 1000"><defs><style>.cls-1{fill:#375c66;}.cls-2{fill:#fff;}</style></defs><rect class="cls-1" width="1000" height="1000"/><path class="cls-2" d="M507.06,353.91a62.52,62.52,0,0,0-2-12.08c-.5-1.87-1.08-3.71-1.76-5.53a59.53,59.53,0,0,0-3.33-7.43,61.12,61.12,0,0,0-10.82-14.63c-.56-.58-1.16-1.14-1.74-1.68-6.37-5.89-13.38-8.37-20.14-8.37-23.33,0-43.58,29.74-23.23,51.74.55.57,1.11,1.17,1.69,1.73s1.33,1.3,2,1.94,1.56,1.37,2.36,2A55.56,55.56,0,0,0,485,373.53h20.1a60.45,60.45,0,0,0,2-11.95h0A46.77,46.77,0,0,1,507.06,353.91Zm-17.88,7.7a47,47,0,0,1-33.48-13.89c-.46-.44-.88-.89-1.32-1.35-4.77-5.17-5.88-10.77-3.3-16.69,2.91-6.63,9.73-11.46,16.22-11.46,3.71,0,7.28,1.57,10.57,4.63.47.45.91.86,1.36,1.32a47.71,47.71,0,0,1,13.71,29.74,47.13,47.13,0,0,1,0,7.7Z"/><path class="cls-2" d="M532.7,304.14c-6.79,0-13.77,2.48-20.14,8.37-.58.54-1.18,1.1-1.74,1.68A61.51,61.51,0,0,0,500,328.82a59.53,59.53,0,0,0-3.33,7.43c-.68,1.82-1.26,3.66-1.76,5.53a62.52,62.52,0,0,0-2,12.08,47.13,47.13,0,0,1,0,7.7h0a61.3,61.3,0,0,0,2,12H515a55.35,55.35,0,0,0,34.85-11.95c.8-.65,1.59-1.33,2.36-2s1.36-1.28,2-1.94,1.14-1.15,1.69-1.73C576.28,333.88,556,304.14,532.7,304.14Zm12.92,42.22c-.44.46-.86.91-1.32,1.35a47,47,0,0,1-33.48,13.89H507a47.13,47.13,0,0,1,0-7.7,47.64,47.64,0,0,1,13.69-29.73c.45-.46.9-.88,1.36-1.32,3.33-3.07,6.89-4.64,10.57-4.64,6.49,0,13.31,4.83,16.22,11.47C551.5,335.56,550.4,341.17,545.62,346.36Z"/><path class="cls-2" d="M469.56,434.42V542.56H417a2.64,2.64,0,0,1-2.64-2.63V434.42Z"/><path class="cls-2" d="M585.6,434.42V539.93a2.64,2.64,0,0,1-2.64,2.63H530.44V434.42Z"/><path class="cls-2" d="M469.56,387.57v32.81H404a2.65,2.65,0,0,1-2.64-2.64V390.21a2.65,2.65,0,0,1,2.64-2.64Z"/><path class="cls-2" d="M598.63,390.21v27.53a2.65,2.65,0,0,1-2.64,2.64H530.44V387.57H596A2.65,2.65,0,0,1,598.63,390.21Z"/><rect class="cls-2" x="483.6" y="387.57" width="32.8" height="154.98"/><path class="cls-2" d="M325.15,635.27l.06-1.59a68.77,68.77,0,0,1,8.09-30.09,61.81,61.81,0,0,1,17.36-20.93q10.33-7.87,20.13-7.88,7.45,0,11.71,5.17a16.54,16.54,0,0,1,3.73,11q0,7.77-5.7,15.33a21.48,21.48,0,0,1-7,6.29,7.19,7.19,0,0,1-3.33,1,6.25,6.25,0,0,1-2.8-.63,7.74,7.74,0,0,1-2.18-1.6c-1.35-1.39-2-2.63-2-3.73a2.69,2.69,0,0,1,.85-2.29Q372.81,599,376,592.3a12,12,0,0,0,1.17-5c0-3.45-1.64-5.17-4.9-5.17q-7.77,0-16.08,8.79a70.14,70.14,0,0,0-13.1,20.44q-5.43,12.63-5.75,23.17-.54,11.24,5.32,15.07a8.91,8.91,0,0,0,5,1.33,11.86,11.86,0,0,0,5.67-1.44,17.12,17.12,0,0,0,4.66-3.62,15.57,15.57,0,0,0,4.26-10q.11-3.88-2.77-5.38a11.49,11.49,0,0,0-2.53-.9,9.85,9.85,0,0,1-2.24-.77q-.87-.45-.45-1.71a7.84,7.84,0,0,1,1.6-2.58q3.09-3.41,6.76-3.41a18.73,18.73,0,0,1,3.67.54,36.27,36.27,0,0,0,6.18,1c1.07,0,1.91,0,2.53-.08a14.25,14.25,0,0,0,1.89-.3,33,33,0,0,0,4.1-1.17c2.1-.71,3.14-.24,3.14,1.41a10.85,10.85,0,0,1-1,4.66,11.06,11.06,0,0,1-2.77,3.73,13.09,13.09,0,0,1-9.37,3.3q.58,3.47-2.45,9a28.43,28.43,0,0,1-15.44,13.58,23,23,0,0,1-8,1.33,21,21,0,0,1-8.17-1.57,18.09,18.09,0,0,1-6.39-4.5Q325.15,646,325.15,635.27Z"/><path class="cls-2" d="M406.57,647.63c.92,0,1.39.6,1.39,1.81a7.72,7.72,0,0,1-2.19,4.95,10.71,10.71,0,0,1-8.57,3.73q-6.18,0-8.47-5a9.66,9.66,0,0,1-.85-4.26,20.15,20.15,0,0,1,.88-5.56c.59-2,1.31-4.19,2.18-6.45s1.82-4.53,2.85-6.84l2.82-6.71q3.09-7.5,3.09-9.9a6.63,6.63,0,0,0-.5-3.17,4.6,4.6,0,0,0-1.1-1.2l-1.06-.74a1.48,1.48,0,0,1-.53-1.31,2.73,2.73,0,0,1,.72-1.78,6.41,6.41,0,0,1,1.89-1.49,12.06,12.06,0,0,1,5.59-1.23q7.83,0,7.83,4.1A29.59,29.59,0,0,1,410,617.52q-2.5,6.15-4.26,9.93l-3.19,7.34q-3.52,8.1-3.52,11.67a2.07,2.07,0,0,0,2.35,2.34,8,8,0,0,0,3.46-.59A4.49,4.49,0,0,1,406.57,647.63ZM417.49,590a9.85,9.85,0,0,1-2.66,2,9.28,9.28,0,0,1-3.15,1,5.69,5.69,0,0,1-3.11-.51,7.33,7.33,0,0,1-2.53-2,8.23,8.23,0,0,1-2.29-5.38,7.52,7.52,0,0,1,.88-4.07,7.17,7.17,0,0,1,2.21-2.21,9,9,0,0,1,4.82-1.65,14.51,14.51,0,0,1,3.51.32,7.08,7.08,0,0,1,2.32,1.06,5.09,5.09,0,0,1,2.61,4.29,10.71,10.71,0,0,1-.72,4.21A10.06,10.06,0,0,1,417.49,590Z"/><path class="cls-2" d="M460.09,612.54q-3.09,0-11.29,8.94-6.12,7-8.89,10.49l-4.8,6.07q-3.09,5.87-4.84,9.75L427.39,654a15.07,15.07,0,0,1-1.94,3.23,2.85,2.85,0,0,1-2.24.93,7.37,7.37,0,0,1-2.71-.51,8,8,0,0,1-2.27-1.3,4.87,4.87,0,0,1-2-3.73,9.39,9.39,0,0,1,1.17-3.14l2-4.31c.64-1.28,1.39-2.92,2.24-4.9l3-7.3q6.28-15.7,6.29-20.29a4.21,4.21,0,0,0-1.6-3.62l-1.07-.74a1.51,1.51,0,0,1-.53-1.31,2.73,2.73,0,0,1,.72-1.78,6.41,6.41,0,0,1,1.89-1.49,10.46,10.46,0,0,1,4.82-1.23A11.08,11.08,0,0,1,439,603a7.81,7.81,0,0,1,2.39,1.44,5.36,5.36,0,0,1,2,3.89,15.87,15.87,0,0,1-.54,4.07,37.69,37.69,0,0,1-1.33,4.16c-.53,1.4-1.1,2.76-1.7,4.07-1.42,3-2.3,4.93-2.64,5.62s-.43,1-.29.77q9.75-12.62,11.72-14.91a50.34,50.34,0,0,1,6.39-6.5q4.2-3.14,8-3.14a7.9,7.9,0,0,1,6,2.34,8.6,8.6,0,0,1,2.23,6.18,22.74,22.74,0,0,1-1.7,7.88q-1.71,4.53-2.29,6.34L475,614.88l4.36-5.22q3.94-4.42,6.93-5.8a12.17,12.17,0,0,1,4.87-1.39,10.56,10.56,0,0,1,3.73.69,8.8,8.8,0,0,1,3.11,2,9.17,9.17,0,0,1,2.72,6.93,21.08,21.08,0,0,1-1.92,8.52q-1.92,4.36-3.35,7.16c-1,1.86-1.89,3.74-2.77,5.62q-3.89,8.46-3.89,12.56,0,2.88,2.34,2.88a8.7,8.7,0,0,0,4.08-1,7.38,7.38,0,0,1,2.37-1,1,1,0,0,1,1.11,1.12q0,4.74-4.84,7.93a10.91,10.91,0,0,1-5.94,2.19,12.16,12.16,0,0,1-4.34-.64,8.35,8.35,0,0,1-3-2,10.68,10.68,0,0,1-3-7.73,29.54,29.54,0,0,1,1.17-8.52,65.6,65.6,0,0,1,2.77-7.53c1.06-2.43,2.14-4.67,3.22-6.71s1.91-3.67,2.48-4.87a15.43,15.43,0,0,0,1.7-5.49c0-1.38-.73-2.07-2.18-2.07q-2.88,0-10.33,9.53-5.65,7.39-7.83,10.65L464.93,638q-3.09,5.87-4.74,9.75L457.48,654a15.79,15.79,0,0,1-1.76,3.23,2.52,2.52,0,0,1-2.08.93,7.85,7.85,0,0,1-2.58-.43,7.17,7.17,0,0,1-2.15-1.12c-1.39-1-2.08-2.12-2.08-3.27a14.48,14.48,0,0,1,1.14-4.74c.77-2,1.72-4.25,2.85-6.74l7.46-15.76q4-8.79,4-11.15C462.27,613.33,461.54,612.54,460.09,612.54Zm5.27,15s.05,0,.05,0l.06-.11A.27.27,0,0,0,465.36,627.55Z"/><path class="cls-2" d="M549,612.54q-3.09,0-11.29,8.94-6.12,7-8.89,10.49L524,638q-3.09,5.87-4.85,9.75L516.27,654a15.44,15.44,0,0,1-1.95,3.23,2.83,2.83,0,0,1-2.23.93,7.42,7.42,0,0,1-2.72-.51,7.91,7.91,0,0,1-2.26-1.3,4.89,4.89,0,0,1-2-3.73,9.26,9.26,0,0,1,1.18-3.14l2-4.31c.64-1.28,1.38-2.92,2.24-4.9l3-7.3q6.29-15.7,6.28-20.29a4.18,4.18,0,0,0-1.6-3.62l-1.06-.74a1.48,1.48,0,0,1-.53-1.31,2.73,2.73,0,0,1,.72-1.78,6.16,6.16,0,0,1,1.89-1.49,10.42,10.42,0,0,1,4.81-1.23,11,11,0,0,1,3.81.53,8,8,0,0,1,2.4,1.44,5.34,5.34,0,0,1,2,3.89,16.3,16.3,0,0,1-.53,4.07,42.48,42.48,0,0,1-1.33,4.16c-.53,1.4-1.1,2.76-1.71,4.07-1.42,3-2.29,4.93-2.63,5.62s-.44,1-.29.77q9.74-12.62,11.71-14.91a50.34,50.34,0,0,1,6.39-6.5c2.8-2.09,5.46-3.14,8-3.14a7.9,7.9,0,0,1,6,2.34A8.61,8.61,0,0,1,560,611a22.78,22.78,0,0,1-1.71,7.88c-1.13,3-1.9,5.13-2.29,6.34l7.83-10.33,4.37-5.22q3.94-4.42,6.92-5.8a12.21,12.21,0,0,1,4.87-1.39,10.52,10.52,0,0,1,3.73.69,8.84,8.84,0,0,1,3.12,2,9.17,9.17,0,0,1,2.71,6.93,21.08,21.08,0,0,1-1.92,8.52q-1.9,4.36-3.35,7.16c-1,1.86-1.88,3.74-2.77,5.62q-3.88,8.46-3.89,12.56c0,1.92.78,2.88,2.35,2.88a8.64,8.64,0,0,0,4.07-1,7.56,7.56,0,0,1,2.37-1,1,1,0,0,1,1.12,1.12q0,4.74-4.85,7.93a10.86,10.86,0,0,1-5.93,2.19,12.12,12.12,0,0,1-4.34-.64,8.3,8.3,0,0,1-3-2,10.73,10.73,0,0,1-3-7.73,29.54,29.54,0,0,1,1.17-8.52,67.53,67.53,0,0,1,2.77-7.53Q572,628,573.64,625c1.09-2,1.91-3.67,2.48-4.87a15.22,15.22,0,0,0,1.7-5.49c0-1.38-.72-2.07-2.18-2.07q-2.88,0-10.33,9.53-5.64,7.39-7.83,10.65L553.81,638q-3.09,5.87-4.74,9.75L546.35,654a15.86,15.86,0,0,1-1.75,3.23,2.52,2.52,0,0,1-2.08.93,7.76,7.76,0,0,1-2.58-.43,7.11,7.11,0,0,1-2.16-1.12c-1.38-1-2.08-2.12-2.08-3.27a14.29,14.29,0,0,1,1.15-4.74c.76-2,1.71-4.25,2.85-6.74l7.45-15.76q4-8.79,4-11.15T549,612.54Zm5.27,15s.06,0,.06,0l.05-.11A.34.34,0,0,0,554.23,627.55Z"/><path class="cls-2" d="M615.52,647.63c.93,0,1.39.6,1.39,1.81a7.76,7.76,0,0,1-2.18,4.95,10.71,10.71,0,0,1-8.58,3.73q-6.18,0-8.46-5a9.66,9.66,0,0,1-.86-4.26,20.53,20.53,0,0,1,.88-5.56q.88-3.06,2.19-6.45c.87-2.25,1.81-4.53,2.84-6.84l2.83-6.71q3.09-7.5,3.09-9.9a6.48,6.48,0,0,0-.51-3.17,4.76,4.76,0,0,0-1.09-1.2l-1.07-.74a1.51,1.51,0,0,1-.53-1.31,2.73,2.73,0,0,1,.72-1.78,6.41,6.41,0,0,1,1.89-1.49,12.09,12.09,0,0,1,5.59-1.23q7.83,0,7.83,4.1a29.76,29.76,0,0,1-2.5,10.95q-2.5,6.15-4.26,9.93l-3.2,7.34q-3.51,8.1-3.51,11.67a2.07,2.07,0,0,0,2.34,2.34,8,8,0,0,0,3.46-.59A4.49,4.49,0,0,1,615.52,647.63ZM626.44,590a9.85,9.85,0,0,1-2.66,2,9.23,9.23,0,0,1-3.14,1,5.74,5.74,0,0,1-3.12-.51,7.33,7.33,0,0,1-2.53-2,8.28,8.28,0,0,1-2.29-5.38,7.62,7.62,0,0,1,.88-4.07,7.28,7.28,0,0,1,2.21-2.21,9,9,0,0,1,4.82-1.65,14.51,14.51,0,0,1,3.51.32,7.08,7.08,0,0,1,2.32,1.06,5.09,5.09,0,0,1,2.61,4.29,10.71,10.71,0,0,1-.72,4.21A10.06,10.06,0,0,1,626.44,590Z"/><path class="cls-2" d="M629.42,639a34.56,34.56,0,0,1,1.55-8.87,42.58,42.58,0,0,1,3.56-8.2,48.49,48.49,0,0,1,5.25-7.51,41.77,41.77,0,0,1,6.52-6.2q7.62-5.7,15.39-5.7,9.1,0,12.14,7.51a15.12,15.12,0,0,1,1,6,16.67,16.67,0,0,1-1.34,6.45,18.73,18.73,0,0,1-3.54,5.38,26,26,0,0,1-5.38,4.34,36.89,36.89,0,0,1-6.78,3.24,50.18,50.18,0,0,1-16.19,2.77,10.51,10.51,0,0,0-.27,2.24,14.58,14.58,0,0,0,.32,3.33A9.63,9.63,0,0,0,643,647a6.1,6.1,0,0,0,5.54,3.2,22.64,22.64,0,0,0,12-3.62,16.88,16.88,0,0,0,3.38-2.53,3.6,3.6,0,0,1,2.27-1.31,2,2,0,0,1,1.67,1.15,4.73,4.73,0,0,1,.72,2.58,7.79,7.79,0,0,1-1.6,4.9q-6.71,6.71-20,6.71-7.83,0-12.57-4.69Q629.11,648.11,629.42,639Zm31.1-29.4q-5.6,0-10.76,7.67a57.58,57.58,0,0,0-7,15.66,26,26,0,0,0,15.44-7q6-5.76,6-11T660.52,609.55Z"/><path class="cls-2" d="M350.75,686.4a.69.69,0,0,1,.19.51v6.93a1,1,0,0,1-.6.95,11.14,11.14,0,0,1-2.6.78,17,17,0,0,1-3.11.29,9.24,9.24,0,0,1-4.64-1.11,7.24,7.24,0,0,1-3-3.25,12.92,12.92,0,0,1,0-10.11,7.44,7.44,0,0,1,2.93-3.26,8.71,8.71,0,0,1,4.53-1.14,9.66,9.66,0,0,1,3.43.59,6.57,6.57,0,0,1,2.62,1.69,1.06,1.06,0,0,1,.34.75.77.77,0,0,1-.16.5.46.46,0,0,1-.39.21,1.2,1.2,0,0,1-.58-.26,9.35,9.35,0,0,0-2.56-1.6,7.8,7.8,0,0,0-2.7-.44,6.21,6.21,0,0,0-5,2.08,8.84,8.84,0,0,0-1.77,5.9,8.94,8.94,0,0,0,1.78,6,6.47,6.47,0,0,0,5.18,2.07,14.65,14.65,0,0,0,2.58-.23,10.12,10.12,0,0,0,2.27-.64v-6h-4.24a.83.83,0,0,1-.57-.18.65.65,0,0,1-.19-.5.66.66,0,0,1,.19-.5.83.83,0,0,1,.57-.18h5A.69.69,0,0,1,350.75,686.4Z"/><path class="cls-2" d="M361,695.55a.89.89,0,0,1-.22-.61v-17a.89.89,0,0,1,.22-.6.81.81,0,0,1,.59-.23.79.79,0,0,1,.59.23.84.84,0,0,1,.22.6v17a.85.85,0,0,1-.22.61.79.79,0,0,1-.59.23A.81.81,0,0,1,361,695.55Z"/><path class="cls-2" d="M372.57,695.55a.89.89,0,0,1-.22-.61V678a.76.76,0,0,1,.25-.58.9.9,0,0,1,.62-.23h9.68a.77.77,0,0,1,.54.18.68.68,0,0,1,.19.52.67.67,0,0,1-.19.52.81.81,0,0,1-.54.17H374v7h8.41a.76.76,0,0,1,.53.19.78.78,0,0,1,0,1,.72.72,0,0,1-.53.19H374v8a.91.91,0,0,1-.2.62.79.79,0,0,1-.61.22A.81.81,0,0,1,372.57,695.55Z"/><path class="cls-2" d="M396.75,695.55a.89.89,0,0,1-.21-.61V678.61h-6.05a.77.77,0,0,1-.54-.18.69.69,0,0,1-.19-.53.68.68,0,0,1,.19-.52.77.77,0,0,1,.54-.18h13.66a.75.75,0,0,1,.53.19.74.74,0,0,1,0,1,.75.75,0,0,1-.53.19h-6v16.33a.85.85,0,0,1-.22.61.79.79,0,0,1-.59.23A.73.73,0,0,1,396.75,695.55Z"/><path class="cls-2" d="M412.88,695.55a.85.85,0,0,1-.22-.61v-17a.84.84,0,0,1,.22-.6.87.87,0,0,1,1.18,0,.84.84,0,0,1,.22.6v17a.85.85,0,0,1-.22.61.87.87,0,0,1-1.18,0Z"/><path class="cls-2" d="M438.56,677.29a.89.89,0,0,1,.19.61v17a.89.89,0,0,1-.21.61.75.75,0,0,1-.57.23.91.91,0,0,1-.71-.39L425.8,679.92v15a.89.89,0,0,1-.21.61.72.72,0,0,1-.55.23.71.71,0,0,1-.58-.22,1,1,0,0,1-.18-.62v-17a.78.78,0,0,1,.84-.83.79.79,0,0,1,.68.39l11.44,15.44v-15a.92.92,0,0,1,.2-.6.73.73,0,0,1,.55-.23A.71.71,0,0,1,438.56,677.29Z"/><path class="cls-2" d="M462.82,686.4a.69.69,0,0,1,.2.51v6.93a1,1,0,0,1-.61.95,11,11,0,0,1-2.6.78,16.87,16.87,0,0,1-3.1.29,9.25,9.25,0,0,1-4.65-1.11,7.3,7.3,0,0,1-3-3.25,13,13,0,0,1,0-10.11,7.38,7.38,0,0,1,2.93-3.26,8.66,8.66,0,0,1,4.53-1.14,9.6,9.6,0,0,1,3.42.59,6.5,6.5,0,0,1,2.62,1.69,1,1,0,0,1,.34.75.77.77,0,0,1-.16.5.46.46,0,0,1-.39.21,1.14,1.14,0,0,1-.57-.26,9.38,9.38,0,0,0-2.57-1.6,7.7,7.7,0,0,0-2.69-.44,6.22,6.22,0,0,0-5,2.08,10.84,10.84,0,0,0,0,11.87,6.44,6.44,0,0,0,5.18,2.07,14.82,14.82,0,0,0,2.58-.23,10,10,0,0,0,2.26-.64v-6h-4.24a.8.8,0,0,1-.56-.18.65.65,0,0,1-.2-.5.67.67,0,0,1,.2-.5.8.8,0,0,1,.56-.18h5A.69.69,0,0,1,462.82,686.4Z"/><path class="cls-2" d="M501.64,677.3a.89.89,0,0,1,.22.6v17a.89.89,0,0,1-.21.61.75.75,0,0,1-.58.23.67.67,0,0,1-.55-.22,1,1,0,0,1-.18-.62V680.42l-6.2,12a.92.92,0,0,1-1.73,0l-6.26-11.88v14.42a1,1,0,0,1-.18.62.67.67,0,0,1-.55.22.74.74,0,0,1-.59-.22.9.9,0,0,1-.19-.62v-17a.84.84,0,0,1,.22-.6.82.82,0,0,1,.61-.23.91.91,0,0,1,.79.6l7,13.5,6.93-13.5a.93.93,0,0,1,.79-.6A.85.85,0,0,1,501.64,677.3Z"/><path class="cls-2" d="M527.48,695.1a.62.62,0,0,1-.23.48.8.8,0,0,1-.55.2.71.71,0,0,1-.41-.13.85.85,0,0,1-.3-.37l-2-4.55H513.84l-2,4.55a.8.8,0,0,1-1.27.3.64.64,0,0,1-.22-.51.56.56,0,0,1,.05-.28L518,677.62a.87.87,0,0,1,.87-.58.92.92,0,0,1,.53.16.82.82,0,0,1,.36.42l7.61,17.17A.6.6,0,0,1,527.48,695.1Zm-13-5.78h8.92l-4.45-10.13Z"/><path class="cls-2" d="M536.18,695.42a.78.78,0,0,1-.24-.58V678a.78.78,0,0,1,.24-.58.9.9,0,0,1,.62-.23h5.08a9.15,9.15,0,0,1,6.76,2.38q2.4,2.38,2.4,6.83t-2.4,6.85a9.16,9.16,0,0,1-6.76,2.39H536.8A.9.9,0,0,1,536.18,695.42Zm13.16-9q0-7.8-7.54-7.8h-4.24v15.63h4.24Q549.33,694.24,549.34,686.41Z"/><path class="cls-2" d="M560.55,695.42a.76.76,0,0,1-.25-.58V678a.76.76,0,0,1,.25-.58.9.9,0,0,1,.62-.23h9.94a.77.77,0,0,1,.54.18.68.68,0,0,1,.19.52.65.65,0,0,1-.19.5.77.77,0,0,1-.54.19H561.9v7h8.69a.76.76,0,0,1,.53.19.78.78,0,0,1,0,1,.72.72,0,0,1-.53.19H561.9v7.27h9.21a.81.81,0,0,1,.54.17.66.66,0,0,1,.19.51.69.69,0,0,1-.19.53.77.77,0,0,1-.54.18h-9.94A.9.9,0,0,1,560.55,695.42Z"/><path class="cls-2" d="M592.77,695.42a.76.76,0,0,1-.25-.58V678a.76.76,0,0,1,.25-.58.89.89,0,0,1,.61-.23h10a.77.77,0,0,1,.54.18.68.68,0,0,1,.19.52.65.65,0,0,1-.19.5.77.77,0,0,1-.54.19h-9.21v7h8.69a.76.76,0,0,1,.53.19.78.78,0,0,1,0,1,.72.72,0,0,1-.53.19h-8.69v7.27h9.21a.81.81,0,0,1,.54.17.66.66,0,0,1,.19.51.69.69,0,0,1-.19.53.77.77,0,0,1-.54.18h-10A.89.89,0,0,1,592.77,695.42Z"/><path class="cls-2" d="M628.14,695.1a.62.62,0,0,1-.23.48.8.8,0,0,1-.55.2.71.71,0,0,1-.41-.13.85.85,0,0,1-.3-.37l-2-4.55H614.51l-2,4.55a.8.8,0,0,1-1.27.3.64.64,0,0,1-.22-.51.7.7,0,0,1,0-.28l7.64-17.17a.87.87,0,0,1,.87-.58.92.92,0,0,1,.53.16.82.82,0,0,1,.36.42l7.61,17.17A.6.6,0,0,1,628.14,695.1Zm-13-5.78H624l-4.45-10.13Z"/><path class="cls-2" d="M638.42,695.24a6.9,6.9,0,0,1-2.82-1.66,1,1,0,0,1-.34-.76.77.77,0,0,1,.17-.49.5.5,0,0,1,.38-.21,1,1,0,0,1,.6.26,8.71,8.71,0,0,0,5.74,2,6.14,6.14,0,0,0,3.67-.95,3.16,3.16,0,0,0,1.3-2.71,2.23,2.23,0,0,0-.63-1.65,4.21,4.21,0,0,0-1.6-1,20.18,20.18,0,0,0-2.59-.72,27.62,27.62,0,0,1-3.47-1,5.67,5.67,0,0,1-2.23-1.51,3.87,3.87,0,0,1-.92-2.71,4.66,4.66,0,0,1,.83-2.73,5.35,5.35,0,0,1,2.31-1.85,8.6,8.6,0,0,1,3.43-.65,9.57,9.57,0,0,1,3.4.59,6.75,6.75,0,0,1,2.65,1.69,1.06,1.06,0,0,1,.34.75.78.78,0,0,1-.17.5.5.5,0,0,1-.38.21,1,1,0,0,1-.6-.26,10.15,10.15,0,0,0-2.56-1.6,7.49,7.49,0,0,0-2.68-.44,5.92,5.92,0,0,0-3.64,1,3.31,3.31,0,0,0-1.31,2.78,2.61,2.61,0,0,0,.58,1.74,4.07,4.07,0,0,0,1.5,1.06,17.71,17.71,0,0,0,2.4.76l.68.15c1.41.35,2.53.68,3.35,1a5.21,5.21,0,0,1,2.08,1.38,3.54,3.54,0,0,1,.85,2.5,4.45,4.45,0,0,1-.82,2.65,5.35,5.35,0,0,1-2.33,1.81,8.68,8.68,0,0,1-3.44.64A11.36,11.36,0,0,1,638.42,695.24Z"/><path class="cls-2" d="M669.34,677.09a.69.69,0,0,1,.5.21.72.72,0,0,1,.21.53.69.69,0,0,1-.19.49l-6.54,8.43v8.19a.89.89,0,0,1-.21.61.75.75,0,0,1-.58.23.77.77,0,0,1-.58-.23.85.85,0,0,1-.23-.61V686.7l-6.51-8.38a.69.69,0,0,1-.19-.49.69.69,0,0,1,.21-.51.67.67,0,0,1,.5-.23.71.71,0,0,1,.58.32l6.22,8.06,6.23-8.06A.71.71,0,0,1,669.34,677.09Z"/></svg>